<?xml version="1.0" standalone="no"?>
<!DOCTYPE svg PUBLIC "-//W3C//DTD SVG 20010904//EN"
 "http://www.w3.org/TR/2001/REC-SVG-20010904/DTD/svg10.dtd">
<svg version="1.0" xmlns="http://www.w3.org/2000/svg"
 width="512.000000pt" height="512.000000pt" viewBox="0 0 512.000000 512.000000"
 preserveAspectRatio="xMidYMid meet">
<metadata>
Created by potrace 1.11, written by Peter Selinger 2001-2013
</metadata>
<g transform="translate(0.000000,512.000000) scale(0.100000,-0.100000)"
fill="#000000" stroke="none">
<path d="M741 5108 c-13 -7 -34 -26 -45 -41 l-21 -28 -3 -2470 c-2 -2218 -1
-2473 13 -2500 31 -58 97 -81 160 -54 16 7 290 194 625 426 36 25 101 70 145
101 44 30 312 214 595 410 283 195 560 386 615 424 56 38 215 148 354 244 140
96 295 203 345 237 50 34 96 65 101 70 6 5 82 58 170 118 88 60 192 132 232
160 40 27 138 95 218 150 180 123 205 148 201 208 -3 48 -23 82 -70 113 -29
19 -378 259 -911 627 -132 91 -283 195 -335 231 -52 36 -247 170 -432 298
-186 128 -462 319 -614 423 -152 105 -297 205 -323 223 -25 18 -154 107 -286
198 -132 91 -271 187 -310 214 -333 232 -366 249 -424 218z m518 -580 c185
-127 379 -261 431 -297 52 -36 170 -117 262 -181 92 -63 298 -205 458 -315
160 -110 313 -216 340 -235 27 -19 343 -237 704 -485 360 -247 655 -452 655
-455 0 -3 -23 -21 -52 -40 -85 -57 -496 -340 -1162 -800 -225 -155 -522 -360
-660 -455 -137 -95 -423 -292 -635 -438 -212 -146 -420 -289 -463 -319 -43
-29 -105 -72 -137 -95 -33 -24 -65 -44 -72 -45 -10 -2 -13 437 -13 2195 0
1208 1 2197 3 2197 2 0 156 -104 341 -232z"/>
</g>
</svg>
